<svg id="Layer_1" data-name="Layer 1" xmlns="http://www.w3.org/2000/svg" viewBox="0 0 554 144"><title>rf-logo</title><g id="Homepage-_-bag" data-name="Homepage-+-bag"><g id="Header-nav-submenu"><g id="Menu"><g id="Page-1"><path id="Fill-1" d="M170.63,125.67h6.87L174,117l-3.42,8.67h0Zm7.28,1h-7.67l-1.07,2.72a5.74,5.74,0,0,0-.42,2.18,2.8,2.8,0,0,0,.69,1.89,2.54,2.54,0,0,0,1.92.87v0.88h-7.5v-0.88c1.67-.24,3-1.67,4.06-4.29l5.61-14.24a2.55,2.55,0,0,0-.93-1,3.62,3.62,0,0,0-1.43-.38v-0.79l3.89-1.31h1.49l7.5,19a6,6,0,0,0,1.3,2.18,4.44,4.44,0,0,0,2,.86v0.88h-9.64v-0.88c1.67-.18,2.49-0.4,2.49-1.39a4.42,4.42,0,0,0-.47-1.68l-1.81-4.6h0Z" style="fill:#010101"/><path id="Fill-3" d="M214.14,129.75l7.09-17.17h7v0.87a4.85,4.85,0,0,0-2.3.42,1.62,1.62,0,0,0-.78,1.15,21.65,21.65,0,0,0-.12,2.78v13.88a3.75,3.75,0,0,0,.28,1.6,1.55,1.55,0,0,0,.92.77,8.54,8.54,0,0,0,2,.3v0.88H217.77v-0.88A5.7,5.7,0,0,0,220,134a1.45,1.45,0,0,0,.82-1,11.36,11.36,0,0,0,.13-2.06v-15.5l-8.06,19.81H212L204,116v13.17c0,2.95,1,4.55,3.69,5.14v0.88H199.5v-0.88c2.32-.24,3.62-1.8,3.62-4.61v-14.9a4.5,4.5,0,0,0-3.62-1.4v-0.87h7.42Z" style="fill:#010101"/><path id="Fill-5" d="M244.05,127.07h1.08c1.8,5.14,4.76,7.66,8,7.66a5.13,5.13,0,0,0,3.47-1.25,4.08,4.08,0,0,0,1.44-3.21,4,4,0,0,0-1-2.84,5,5,0,0,0-2.29-1.43,27.79,27.79,0,0,0-3.5-.77,21.07,21.07,0,0,1-3.08-.67,6,6,0,0,1-4.41-5.86,6.35,6.35,0,0,1,6.41-6.56,13.14,13.14,0,0,1,2.58.3,13,13,0,0,0,2.24.29,3.69,3.69,0,0,0,1.66-.38h1.23l0.7,6.61h-1.13a15.82,15.82,0,0,0-3.35-4.51,5.85,5.85,0,0,0-4.08-1.56,4.27,4.27,0,0,0-4.4,4.11c0,2.14,1.49,3.16,4.36,3.75s5.26,0.88,6.6,1.52a6.59,6.59,0,0,1,3.9,6.08,7.29,7.29,0,0,1-7.38,7.29,7.4,7.4,0,0,1-1.78-.18c-0.41-.13-1.09-0.35-2.06-0.69a7.76,7.76,0,0,0-2.24-.52,2.44,2.44,0,0,0-2.06,1h-0.93v-8.16Z" style="fill:#010101"/><polygon id="Fill-7" points="275.82 144 278.18 144 278.18 107.72 275.82 107.72 275.82 144" style="fill:#010101"/><path id="Fill-9" d="M315.64,112.57h8.68v0.87a3.56,3.56,0,0,0-3.66,3.86l0.3,18.43h-1l-16.57-19.19,0.23,12.91c0.1,3.1.66,4.55,4,4.9v0.88H299v-0.88a4,4,0,0,0,2.49-.9,3.29,3.29,0,0,0,1-1.91,13.75,13.75,0,0,0,.13-2.9l-0.22-13.15c-1.24-1.33-2.37-2-3.62-2h-0.19v-0.87h6.7L320,129.46l-0.22-11.29c0-1.74-.33-2.94-1.17-3.69a3.53,3.53,0,0,0-1.31-.75,4.72,4.72,0,0,0-1.61-.29v-0.87Z" style="fill:#010101"/><path id="Fill-10" d="M350.58,113.44v-0.87h7.24v0.87c-1.45.2-2.89,1.68-4.57,4.55l-4.78,8.13v5.78a2,2,0,0,0,.76,1.93,7.9,7.9,0,0,0,2.69.51v0.88H341v-0.88h0.29a4.61,4.61,0,0,0,2.09-.36c0.93-.5,1-1.17,1-2.4v-4.68l-6.9-11.49a7,7,0,0,0-1.14-1.52,2.58,2.58,0,0,0-1.85-.45v-0.87H345.2v0.87a10.37,10.37,0,0,0-2.25.24,1,1,0,0,0-.79,1.08,6.72,6.72,0,0,0,1.15,2.57l4.68,7.72,3.14-5.22c1.15-1.91,1.69-3.17,1.69-4.35a2,2,0,0,0-.59-1.4,1.88,1.88,0,0,0-1.47-.64h-0.17Z" style="fill:#010101"/><path id="Fill-11" d="M389.2,112.27v7.11h-1c-2-4.24-4.67-6.33-7.93-6.33a6.4,6.4,0,0,0-5.42,2.89,13.6,13.6,0,0,0-2.06,7.64c-0.06,6.29,3.55,10.9,8.43,10.82,3,0,5.75-1.48,8-4.49l1,0.53a11.83,11.83,0,0,1-10.29,5.28A11.5,11.5,0,0,1,368,124a11.59,11.59,0,0,1,11.82-11.89,8.72,8.72,0,0,1,1.69.15c0.53,0.08,1.15.23,1.88,0.41l1.46,0.4a5.38,5.38,0,0,0,.89.07,2.8,2.8,0,0,0,2.12-.89h1.34Z" style="fill:#010101"/><path id="Fill-12" d="M26.16,45.6L9.79,26.07V24h5.93c6.83,0,10.44-4.94,10.44-9.52S22.74,5,16.2,5H4.31V45.6H0V0.6H16.2C26,0.6,30.54,7.8,30.54,14.48c0,6.86-4.46,12.09-11.35,13.27L17,28.13,31.83,45.6H26.16Zm192.58,0V0.67h26.64V5H223.2V20.89h21.71v4.42H223.2V41.24h22.26V45.6H218.75Zm69.27,0V0.67h26V5H292.4V20.89h19.18v4.42H292.4V45.6H288Zm63.29,0h4.39V0.67h-4.39V45.6Zm44.75,0V0.67H422.7V5H400.52V20.89h21.7v4.42h-21.7V41.24h22.25V45.6H396.06Zm62.36,0V0.67h4.4V41.24h22.52V45.6H458.42Zm61.76-4.36h11.54c11.79,0,18-9.1,18-18.08S543.51,5,531.71,5H520.18V41.24Zm-4.4,4.36V0.67h15.94C547,0.67,554,12.32,554,23.16S547,45.6,531.71,45.6H515.78ZM161.63,46c-7.14,0-15.15-4.1-16-11.66l4.47-.06h0l0.06,0c0.84,4.81,6.53,7.4,11.53,7.4,5.91,0,12-3.37,12-9a8.49,8.49,0,0,0-.24-1.92c-1-4.6-6.92-5.17-11.64-5.64C154.16,24.4,146.64,22.92,146,14A11.45,11.45,0,0,1,148.32,6c2.79-3.6,8-5.84,13.51-5.84,5.78,0,13,2.66,14.78,10l-4.4.18c-1.53-4.14-6.32-6-10.49-6-4.34.1-8,1.6-9.92,4.1a7.33,7.33,0,0,0-1.43,5.27c0.42,6,7.13,6.69,12,7.14,6.74,0.81,13.86,2.57,15.46,9.13a16.44,16.44,0,0,1,.31,2.84c0,8.25-8.41,13.2-16.53,13.2h0ZM88.14,4.42A18.61,18.61,0,0,0,75,9.94a18.47,18.47,0,0,0,0,26.31,18.66,18.66,0,0,0,13.16,5.52,19.06,19.06,0,0,0,13.28-5.52,18.64,18.64,0,0,0,0-26.31,19.07,19.07,0,0,0-13.3-5.53h0Zm0,41.78A23.2,23.2,0,0,1,65,23.1a23.15,23.15,0,1,1,39.53,16.28A23,23,0,0,1,88.14,46.2h0Z" style="fill:#010101"/></g></g></g></g></svg>