<svg id="Layer_1" data-name="Layer 1" xmlns="http://www.w3.org/2000/svg" viewBox="0 0 554 144"><title>rf-logo-w</title><g id="Homepage-_-bag" data-name="Homepage-+-bag"><g id="Home-iphone"><g id="Menu"><g id="Page-1"><path id="Fill-1" d="M167.68-83.49h6.87l-3.46-8.67-3.42,8.67h0Zm7.28,1h-7.67l-1.07,2.72a5.74,5.74,0,0,0-.42,2.18,2.8,2.8,0,0,0,.69,1.89,2.54,2.54,0,0,0,1.92.87v0.88h-7.5v-0.88c1.67-.24,3-1.67,4.06-4.29l5.61-14.24a2.55,2.55,0,0,0-.93-1,3.62,3.62,0,0,0-1.43-.38V-95.5l3.89-1.31h1.49l7.5,19a6,6,0,0,0,1.3,2.18,4.44,4.44,0,0,0,2,.86v0.88h-9.64v-0.88c1.67-.18,2.49-0.4,2.49-1.39a4.42,4.42,0,0,0-.47-1.68L175-82.47h0Z" transform="translate(2.95 209.16)"/><path id="Fill-3" d="M211.19-79.41l7.09-17.17h7v0.87a4.85,4.85,0,0,0-2.3.42,1.62,1.62,0,0,0-.78,1.15,21.66,21.66,0,0,0-.12,2.78v13.88a3.75,3.75,0,0,0,.28,1.6,1.55,1.55,0,0,0,.92.77,8.54,8.54,0,0,0,2,.3v0.88H214.82v-0.88a5.7,5.7,0,0,0,2.26-.39,1.45,1.45,0,0,0,.82-1,11.36,11.36,0,0,0,.13-2.06v-15.5L210-73.93H209l-8-19.18v13.17c0,2.95,1,4.55,3.69,5.14v0.88h-8.21v-0.88c2.32-.24,3.62-1.8,3.62-4.61v-14.9a4.5,4.5,0,0,0-3.62-1.4v-0.87H204Z" transform="translate(2.95 209.16)"/><path id="Fill-5" d="M241.11-82.09h1.08c1.8,5.14,4.76,7.66,8,7.66a5.13,5.13,0,0,0,3.47-1.25,4.08,4.08,0,0,0,1.44-3.21,4,4,0,0,0-1-2.84,5,5,0,0,0-2.29-1.43,27.79,27.79,0,0,0-3.5-.77,21.06,21.06,0,0,1-3.08-.67,6,6,0,0,1-4.41-5.86A6.35,6.35,0,0,1,247.25-97a13.14,13.14,0,0,1,2.58.3,13,13,0,0,0,2.24.29,3.69,3.69,0,0,0,1.66-.38H255l0.7,6.61h-1.13a15.82,15.82,0,0,0-3.35-4.51,5.85,5.85,0,0,0-4.08-1.56,4.27,4.27,0,0,0-4.4,4.11c0,2.14,1.49,3.16,4.36,3.75s5.26,0.88,6.6,1.52a6.59,6.59,0,0,1,3.9,6.08,7.29,7.29,0,0,1-7.38,7.29,7.4,7.4,0,0,1-1.78-.18c-0.41-.13-1.09-0.35-2.06-0.69a7.76,7.76,0,0,0-2.24-.52,2.44,2.44,0,0,0-2.06,1h-0.93v-8.16Z" transform="translate(2.95 209.16)"/><polygon id="Fill-7" points="275.82 144 278.18 144 278.18 107.72 275.82 107.72 275.82 144"/><path id="Fill-9" d="M312.7-96.59h8.68v0.87a3.56,3.56,0,0,0-3.66,3.86L318-73.43h-1L300.45-92.62l0.23,12.91c0.1,3.1.66,4.55,4,4.9v0.88H296.1v-0.88a4,4,0,0,0,2.49-.9,3.29,3.29,0,0,0,1-1.91,13.75,13.75,0,0,0,.13-2.9l-0.22-13.15c-1.24-1.33-2.37-2-3.62-2h-0.19v-0.87h6.7L317-79.7,316.79-91c0-1.74-.33-2.94-1.17-3.69a3.53,3.53,0,0,0-1.31-.75,4.72,4.72,0,0,0-1.61-.29v-0.87Z" transform="translate(2.95 209.16)"/><path id="Fill-10" d="M347.63-95.72v-0.87h7.24v0.87c-1.45.2-2.89,1.68-4.57,4.55L345.51-83v5.78a2,2,0,0,0,.76,1.93,7.9,7.9,0,0,0,2.69.51v0.88H338v-0.88h0.29a4.61,4.61,0,0,0,2.09-.36c0.93-.5,1-1.17,1-2.4v-4.68l-6.9-11.49a7,7,0,0,0-1.14-1.52,2.58,2.58,0,0,0-1.85-.45v-0.87h10.68v0.87a10.37,10.37,0,0,0-2.25.24,1,1,0,0,0-.79,1.07,6.72,6.72,0,0,0,1.15,2.57L345-84.1l3.14-5.22c1.15-1.91,1.69-3.17,1.69-4.35a2,2,0,0,0-.59-1.4,1.88,1.88,0,0,0-1.47-.64h-0.17Z" transform="translate(2.95 209.16)"/><path id="Fill-11" d="M386.26-96.89v7.11h-1c-2-4.24-4.67-6.33-7.93-6.33a6.4,6.4,0,0,0-5.42,2.89,13.6,13.6,0,0,0-2.06,7.64c-0.06,6.29,3.55,10.9,8.43,10.82,3,0,5.75-1.48,8-4.49l1,0.53a11.83,11.83,0,0,1-10.29,5.28,11.5,11.5,0,0,1-11.85-11.68,11.93,11.93,0,0,1,3.47-8.57A11.88,11.88,0,0,1,376.88-97a8.72,8.72,0,0,1,1.69.15c0.53,0.08,1.15.23,1.88,0.41l1.46,0.4a5.38,5.38,0,0,0,.89.07,2.8,2.8,0,0,0,2.12-.89h1.34Z" transform="translate(2.95 209.16)"/><path id="Fill-12" d="M23.22-163.56L6.84-183.09v-2.06h5.93c6.83,0,10.44-4.94,10.44-9.52s-3.42-9.47-10-9.47H1.37v40.58H-2.95v-45h16.2c9.85,0,14.34,7.2,14.34,13.88,0,6.86-4.46,12.09-11.35,13.27l-2.16.38,14.8,17.46H23.22Zm192.58,0v-44.93h26.64v4.35H220.25v15.87H242v4.42H220.25v15.93h22.26v4.36H215.8Zm69.27,0v-44.93h26v4.35H289.46v15.87h19.18v4.42H289.46v20.29h-4.38Zm63.29,0h4.39v-44.93h-4.39v44.93Zm44.75,0v-44.93h26.64v4.35H397.58v15.87h21.7v4.42h-21.7v15.93h22.25v4.36H393.11Zm62.36,0v-44.93h4.4v40.57h22.52v4.36H455.47Zm61.76-4.36h11.54c11.79,0,18-9.1,18-18.08s-6.16-18.14-18-18.14H517.23v36.22Zm-4.4,4.36v-44.93h15.94c15.31,0,22.29,11.65,22.29,22.49s-7,22.43-22.29,22.43H512.83Zm-354.15.41c-7.14,0-15.15-4.1-16-11.66l4.47-.06h0l0.06,0c0.84,4.81,6.53,7.4,11.53,7.4,5.91,0,12-3.37,12-9a8.49,8.49,0,0,0-.24-1.92c-1-4.6-6.92-5.17-11.64-5.64-7.66-.78-15.18-2.27-15.86-11.14a11.45,11.45,0,0,1,2.36-8.09c2.79-3.6,8-5.84,13.51-5.84,5.78,0,13,2.66,14.78,10l-4.4.18c-1.53-4.14-6.32-6-10.49-6-4.34.1-8,1.6-9.92,4.1a7.33,7.33,0,0,0-1.43,5.27c0.42,6,7.13,6.69,12,7.14,6.74,0.81,13.86,2.57,15.46,9.13a16.43,16.43,0,0,1,.31,2.84c0,8.25-8.41,13.2-16.53,13.2h0ZM85.19-204.74A18.61,18.61,0,0,0,72-199.22a18.33,18.33,0,0,0-5.5,13.16A18.37,18.37,0,0,0,72-172.91a18.66,18.66,0,0,0,13.16,5.52,19.06,19.06,0,0,0,13.28-5.52,18.62,18.62,0,0,0,5.44-13.15,18.65,18.65,0,0,0-5.43-13.16,19.07,19.07,0,0,0-13.3-5.53h0Zm0,41.78a23,23,0,0,1-16.35-6.82,23.2,23.2,0,0,1-6.77-16.28,23.27,23.27,0,0,1,6.77-16.3,23.22,23.22,0,0,1,16.35-6.8,23.33,23.33,0,0,1,16.43,6.8,23.32,23.32,0,0,1,6.74,16.3,23.22,23.22,0,0,1-6.76,16.28A23,23,0,0,1,85.19-163h0Z" transform="translate(2.95 209.16)"/></g></g></g></g></svg>
